PathFileType	4	(X/Y/Z)	C:/Users/beibeiliu/ov580/test_trc\sequence.7_training_dense_left.trc
DataRate	CameraRate	NumFrames	NumMarkers	Units	OrigDataRate	OrigDataStartFrame	OrigNumFrames
120	120	7	19	mm	120	52	103
Frame#	Time	ThumbCMC			ThumbMCP			ThumbIP			ThumbTip			IndexMCP			IndexPIP			IndexTip			MiddleMCP			MiddlePIP			MiddleTip			RingMCP			RingPIP			RingTip			PinkyMCP			PinkyPIP			PinkyTip			BackHand1			BackHand2			BackHand3	
		X0	Y0	Z0	X1	Y1	Z1	X2	Y2	Z2	X3	Y3	Z3	X4	Y4	Z4	X5	Y5	Z5	X6	Y6	Z6	X7	Y7	Z7	X8	Y8	Z8	X9	Y9	Z9	X10	Y10	Z10	X11	Y11	Z11	X12	Y12	Z12	X13	Y13	Z13	X14	Y14	Z14	X15	Y15	Z15	X16	Y16	Z16	X17	Y17	Z17	X18	Y18	Z18	
51	0.425	-185.501	9.92081	48.0648	-194.79	10.3034	24.9033	-206.835	5.58406	8.08133	-223.134	9.73763	-5.89995	-185.151	-31.8281	-8.47244	-162.607	-18.5654	-18.215	-159.144	-3.13357	8.56599	-170.637	-43.9177	-4.07239	-150.227	-26.8128	-15.0907	-152.823	-12.8432	19.8006	-157.273	-48.9397	3.67982	-141.023	-26.5132	1.25404	-145.493	-18.1272	26.3275	-142.808	-57.348	18.7597	-133.947	-32.5827	12.2566	-147.229	-22.7025	29.8617	-174.647	-45.7082	51.7623	-170.108	-32.9545	75.5542	-192.707	-22.2809	54.6621	
52	0.433333	-189.133	13.8816	46.2307	-194.145	19.5785	24.9269	-213.173	25.9376	3.59674	-220.525	33.0838	-7.75869	-200.137	-19.0841	-10.2618	-174.474	-13.1315	-20.7409	-166.827	-0.887203	6.72297	-187.036	-35.0259	-11.193	-163.636	-21.8281	-16.7409	-164.351	-6.8839	13.794	-176.73	-46.1598	2.285	-156.719	-26.665	-0.98978	-161.089	-17.6492	25.9977	-167.262	-54.5413	12.4781	-152.33	-33.8117	10.5131	-160.811	-21.6828	33.6996	-195.146	-37.8308	45.4938	-188.215	-28.557	74.4392	-205.924	-10.6902	49.9669	
53	0.441667	-189.894	24.6589	43.7254	-196.556	32.1668	18.0336	-205.504	43.4963	0.122889	-209.175	51.3017	-10.8643	-211.415	-1.61731	-15.2614	-183.453	-3.33808	-24.4106	-172.95	5.04164	0.197827	-203.397	-17.2834	-17.0981	-173.795	-15.8387	-16.8267	-174.364	-5.67013	13.3498	-197.583	-31.1276	-7.09742	-172.72	-25.6915	-4.15292	-174.172	-12.8951	19.8153	-194.118	-44.8189	5.08625	-172.624	-31.2548	5.13884	-176.883	-18.4134	26.7521	-215.765	-26.8643	44.1583	-207.457	-18.1952	66.4022	-216.216	5.46174	44.6952	
54	0.45	-194.073	32.266	34.8549	-191.6	38.3004	14.0109	-195.15	52.9355	-5.17736	-195.436	62.1561	-17.672	-215.449	13.1255	-22.8421	-187.02	2.49567	-27.8479	-179.158	7.4448	-2.55736	-215.334	-7.90799	-20.9565	-184.782	-11.0893	-19.7953	-183.88	-0.0503228	9.82571	-213.288	-22.9921	-10.6736	-185.325	-22.4999	-4.73576	-188.337	-8.63863	16.9802	-211.135	-33.7748	-2.14251	-188.981	-27.403	2.60172	-194.438	-13.1108	22.6615	-232.572	-8.6674	34.0171	-220.604	-5.70446	59.9248	-219.963	20.6278	38.369	
55	0.458333	-193.745	38.2019	29.1534	-186.985	46.539	4.49169	-186.614	54.9711	-13.7912	-179.093	69.2516	-27.1808	-216.995	26.1638	-28.9103	-194.041	7.77865	-33.1902	-185.559	11.056	-5.46018	-220.304	8.45218	-28.4346	-192.49	-5.54328	-25.6431	-191.008	0.887882	4.24832	-224.77	-4.51809	-17.5982	-196.429	-14.3207	-7.90351	-198.431	-0.922026	13.6243	-227.818	-20.107	-7.29339	-204.231	-19.1816	-2.90937	-207.394	-3.79383	22.3334	-239.068	14.5301	24.8128	-230.991	17.441	49.1624	-223.302	37.8024	33.3229	
56	0.466667	-189.788	47.0716	20.6762	-178.732	49.3794	-1.6942	-173.183	56.6617	-21.8038	-164.757	61.8304	-34.8322	-210.808	35.1574	-38.4597	-194.347	12.7677	-37.9287	-186.749	14.9452	-10.6426	-221.107	18.129	-35.613	-200.95	-2.48985	-26.299	-199.155	9.26768	3.39696	-230.151	8.43906	-22.2479	-206.758	-6.58894	-10.0833	-205.461	11.3476	10.5263	-238.582	0.0344351	-10.8957	-215.857	-9.43585	-5.7988	-213.459	7.19333	17.5864	-245.284	33.3773	14.0396	-235.607	36.1952	44.9758	-217.906	52.6892	20.1964	
57	0.475	-182.724	46.9782	19.299	-172.94	42.6505	-4.12496	-167.62	43.661	-28.8922	-157.621	44.6075	-43.0424	-204.026	35.0751	-43.1328	-198.772	10.4124	-36.7628	-191.068	17.2308	-9.37977	-221.396	24.7238	-37.9828	-209.218	0.79649	-29.7153	-201.175	15.3307	2.18986	-229.493	15.8376	-26.7933	-212.323	0.489789	-12.7754	-207.158	15.0629	7.49498	-242.818	13.2748	-12.9496	-223.028	-0.665805	-1.05809	-214.589	15.7096	16.7613	-237.66	49.9945	10.4003	-225.825	55.8889	35.6954	-208.891	62.9794	16.2549	
